# xmcd
#
# Track frame offsets:
#	150
#	4304
#	34052
#	74497
#	105917
#	156508
#	197834
#
# Disc length: 3003 seconds
# Revision: 0
# Processed by: cddbd v1.5.2PL0 Copyright (c) Steve Scherf et al.
# Submitted via: dBpowerAMP V12.0
#
DISCID=5a0bb907
DTITLE=Popa Chubby - Electric Chubbyland CD2
DYEAR=2006
DGENRE=Blues
TTITLE0=Intro
TTITLE1=Come on
TTITLE2=Red House
TTITLE3=Who Knows
TTITLE4=Hey Joe
TTITLE5=Little Wing
TTITLE6=Voodoo Chile
EXTD=
EXTT0=
EXTT1=
EXTT2=
EXTT3=
EXTT4=
EXTT5=
EXTT6=
PLAYORDER=
